<?xml version="1.0" standalone="no"?><svg xmlns="http://www.w3.org/2000/svg" viewBox="0 0 1440 320"><path fill="#dee7f185" fill-opacity="1" d="M0,192L21.8,208C43.6,224,87,256,131,261.3C174.5,267,218,245,262,229.3C305.5,213,349,203,393,213.3C436.4,224,480,256,524,261.3C567.3,267,611,245,655,234.7C698.2,224,742,224,785,208C829.1,192,873,160,916,149.3C960,139,1004,149,1047,181.3C1090.9,213,1135,267,1178,277.3C1221.8,288,1265,256,1309,250.7C1352.7,245,1396,267,1418,277.3L1440,288L1440,320L1418.2,320C1396.4,320,1353,320,1309,320C1265.5,320,1222,320,1178,320C1134.5,320,1091,320,1047,320C1003.6,320,960,320,916,320C872.7,320,829,320,785,320C741.8,320,698,320,655,320C610.9,320,567,320,524,320C480,320,436,320,393,320C349.1,320,305,320,262,320C218.2,320,175,320,131,320C87.3,320,44,320,22,320L0,320Z"></path></svg>